<?xml version="1.0" encoding="UTF-8" standalone="no"?>
<!-- Created with Inkscape (http://www.inkscape.org/) -->

<svg
   xmlns:dc="http://purl.org/dc/elements/1.1/"
   xmlns:cc="http://creativecommons.org/ns#"
   xmlns:rdf="http://www.w3.org/1999/02/22-rdf-syntax-ns#"
   xmlns:svg="http://www.w3.org/2000/svg"
   xmlns="http://www.w3.org/2000/svg"
   xmlns:xlink="http://www.w3.org/1999/xlink"
   xmlns:sodipodi="http://sodipodi.sourceforge.net/DTD/sodipodi-0.dtd"
   xmlns:inkscape="http://www.inkscape.org/namespaces/inkscape"
   width="2508.3772"
   height="3604.9077"
   id="svg2"
   version="1.1"
   inkscape:version="0.48.4 r9939"
   sodipodi:docname="logo.svg"
   inkscape:export-filename="/home/adame/Desktop/W2N/logo2.png"
   inkscape:export-xdpi="360"
   inkscape:export-ydpi="360">
  <defs
     id="defs4">
    <linearGradient
       id="linearGradient3869">
      <stop
         id="stop3871"
         offset="0"
         style="stop-color:#ffa500;stop-opacity:1;" />
      <stop
         id="stop3873"
         offset="1"
         style="stop-color:#dd3000;stop-opacity:1;" />
    </linearGradient>
    <linearGradient
       id="linearGradient3810">
      <stop
         style="stop-color:#ffa500;stop-opacity:1;"
         offset="0"
         id="stop3812" />
      <stop
         style="stop-color:#dd3000;stop-opacity:1;"
         offset="1"
         id="stop3814" />
    </linearGradient>
    <linearGradient
       id="linearGradient3926">
      <stop
         id="stop3928"
         offset="0"
         style="stop-color:#ffa500;stop-opacity:1;" />
      <stop
         id="stop3930"
         offset="1"
         style="stop-color:#dd3000;stop-opacity:1;" />
    </linearGradient>
    <linearGradient
       id="linearGradient3886">
      <stop
         style="stop-color:#ffa500;stop-opacity:1;"
         offset="0"
         id="stop3888" />
      <stop
         style="stop-color:#dd3000;stop-opacity:1;"
         offset="1"
         id="stop3890" />
    </linearGradient>
    <linearGradient
       id="linearGradient3854">
      <stop
         style="stop-color:#ffa500;stop-opacity:1;"
         offset="0"
         id="stop3856" />
      <stop
         style="stop-color:#bb3000;stop-opacity:1;"
         offset="1"
         id="stop3858" />
    </linearGradient>
    <linearGradient
       id="linearGradient3814">
      <stop
         id="stop3816"
         offset="0"
         style="stop-color:#ffa500;stop-opacity:1;" />
      <stop
         id="stop3818"
         offset="1"
         style="stop-color:#dd3000;stop-opacity:1;" />
    </linearGradient>
    <linearGradient
       id="linearGradient3764">
      <stop
         style="stop-color:#ed9121;stop-opacity:1;"
         offset="0"
         id="stop3766" />
      <stop
         style="stop-color:#ed9121;stop-opacity:0;"
         offset="1"
         id="stop3768" />
    </linearGradient>
    <linearGradient
       id="linearGradient3967">
      <stop
         style="stop-color:#ffa500;stop-opacity:1;"
         offset="0"
         id="stop3969" />
      <stop
         style="stop-color:#993000;stop-opacity:1;"
         offset="1"
         id="stop3971" />
    </linearGradient>
    <linearGradient
       inkscape:collect="always"
       xlink:href="#linearGradient3967"
       id="linearGradient3770"
       x1="140.0313"
       y1="1209.8402"
       x2="946.90631"
       y2="1209.8402"
       gradientUnits="userSpaceOnUse"
       gradientTransform="translate(-205.57268,561.74283)" />
    <linearGradient
       inkscape:collect="always"
       xlink:href="#linearGradient3967-4"
       id="linearGradient3770-7"
       x1="140.0313"
       y1="1209.8402"
       x2="946.90631"
       y2="1209.8402"
       gradientUnits="userSpaceOnUse" />
    <linearGradient
       id="linearGradient3967-4">
      <stop
         style="stop-color:#ffa500;stop-opacity:1;"
         offset="0"
         id="stop3969-1" />
      <stop
         style="stop-color:#993000;stop-opacity:1;"
         offset="1"
         id="stop3971-5" />
    </linearGradient>
    <linearGradient
       gradientTransform="translate(-1.4209155,1019.4248)"
       y2="1209.8402"
       x2="946.90631"
       y1="1209.8402"
       x1="140.0313"
       gradientUnits="userSpaceOnUse"
       id="linearGradient3787"
       xlink:href="#linearGradient3967-4"
       inkscape:collect="always" />
    <linearGradient
       inkscape:collect="always"
       xlink:href="#linearGradient3814"
       id="linearGradient3812"
       x1="134.32466"
       y1="1972.1223"
       x2="964.05676"
       y2="2499.2651"
       gradientUnits="userSpaceOnUse"
       gradientTransform="translate(-171.42857,91.428573)" />
    <linearGradient
       inkscape:collect="always"
       xlink:href="#linearGradient3814-0"
       id="linearGradient3812-6"
       x1="134.32466"
       y1="1972.1223"
       x2="964.05676"
       y2="2499.2651"
       gradientUnits="userSpaceOnUse" />
    <linearGradient
       id="linearGradient3814-0">
      <stop
         id="stop3816-0"
         offset="0"
         style="stop-color:#ffa500;stop-opacity:1;" />
      <stop
         id="stop3818-5"
         offset="1"
         style="stop-color:#dd3000;stop-opacity:1;" />
    </linearGradient>
    <linearGradient
       gradientTransform="translate(-173.01216,672.14917)"
       y2="2499.2651"
       x2="964.05676"
       y1="1972.1223"
       x1="134.32466"
       gradientUnits="userSpaceOnUse"
       id="linearGradient3835"
       xlink:href="#linearGradient3854"
       inkscape:collect="always" />
    <linearGradient
       inkscape:collect="always"
       xlink:href="#linearGradient3886"
       id="linearGradient3884"
       x1="1378.6929"
       y1="-318.66498"
       x2="2427.5679"
       y2="-318.66498"
       gradientUnits="userSpaceOnUse" />
    <linearGradient
       inkscape:collect="always"
       xlink:href="#linearGradient3886-5"
       id="linearGradient3884-1"
       x1="1378.6929"
       y1="-318.66498"
       x2="2427.5679"
       y2="-318.66498"
       gradientUnits="userSpaceOnUse" />
    <linearGradient
       id="linearGradient3886-5">
      <stop
         style="stop-color:#ffa500;stop-opacity:1;"
         offset="0"
         id="stop3888-7" />
      <stop
         style="stop-color:#dd3000;stop-opacity:1;"
         offset="1"
         id="stop3890-4" />
    </linearGradient>
    <linearGradient
       gradientTransform="translate(1667.4889,7.7611543)"
       y2="-318.66498"
       x2="2427.5679"
       y1="-318.66498"
       x1="1378.6929"
       gradientUnits="userSpaceOnUse"
       id="linearGradient3907"
       xlink:href="#linearGradient3926"
       inkscape:collect="always" />
    <linearGradient
       inkscape:collect="always"
       xlink:href="#linearGradient3967"
       id="linearGradient3047"
       gradientUnits="userSpaceOnUse"
       gradientTransform="translate(-205.57268,561.74283)"
       x1="140.0313"
       y1="1209.8402"
       x2="946.90631"
       y2="1209.8402" />
    <linearGradient
       inkscape:collect="always"
       xlink:href="#linearGradient3814"
       id="linearGradient3049"
       gradientUnits="userSpaceOnUse"
       gradientTransform="translate(-171.42857,91.428573)"
       x1="134.32466"
       y1="1972.1223"
       x2="964.05676"
       y2="2499.2651" />
    <linearGradient
       inkscape:collect="always"
       xlink:href="#linearGradient3854"
       id="linearGradient3051"
       gradientUnits="userSpaceOnUse"
       gradientTransform="translate(-173.01216,672.14917)"
       x1="134.32466"
       y1="1972.1223"
       x2="964.05676"
       y2="2499.2651" />
    <linearGradient
       inkscape:collect="always"
       xlink:href="#linearGradient3810"
       id="linearGradient3808"
       x1="4636.6064"
       y1="-293.36166"
       x2="6138.0713"
       y2="-293.36166"
       gradientUnits="userSpaceOnUse"
       gradientTransform="translate(-1822.8571,834.28571)" />
    <linearGradient
       inkscape:collect="always"
       xlink:href="#linearGradient3810-3"
       id="linearGradient3808-0"
       x1="4636.6064"
       y1="-293.36166"
       x2="6138.0713"
       y2="-293.36166"
       gradientUnits="userSpaceOnUse"
       gradientTransform="translate(-1822.8571,834.28571)" />
    <linearGradient
       id="linearGradient3810-3">
      <stop
         style="stop-color:#ffa500;stop-opacity:1;"
         offset="0"
         id="stop3812-7" />
      <stop
         style="stop-color:#dd3000;stop-opacity:1;"
         offset="1"
         id="stop3814-8" />
    </linearGradient>
    <linearGradient
       inkscape:collect="always"
       xlink:href="#linearGradient3810-3"
       id="linearGradient3830"
       x1="4636.6064"
       y1="-293.36166"
       x2="6138.0713"
       y2="-293.36166"
       gradientUnits="userSpaceOnUse"
       gradientTransform="translate(-1822.8571,834.28571)" />
    <linearGradient
       id="linearGradient3832">
      <stop
         style="stop-color:#ffa500;stop-opacity:1;"
         offset="0"
         id="stop3834" />
      <stop
         style="stop-color:#dd3000;stop-opacity:1;"
         offset="1"
         id="stop3836" />
    </linearGradient>
    <linearGradient
       y2="-293.36166"
       x2="9386.0576"
       y1="-293.36166"
       x1="4636.6064"
       gradientTransform="translate(63.280446,845.31501)"
       gradientUnits="userSpaceOnUse"
       id="linearGradient3840"
       xlink:href="#linearGradient3869"
       inkscape:collect="always" />
  </defs>
  <sodipodi:namedview
     id="base"
     pagecolor="#000000"
     bordercolor="#666666"
     borderopacity="1"
     inkscape:pageopacity="1"
     inkscape:pageshadow="2"
     inkscape:zoom="0.175"
     inkscape:cx="6533.6452"
     inkscape:cy="2813.9149"
     inkscape:document-units="px"
     inkscape:current-layer="layer1"
     showgrid="false"
     fit-margin-top="0"
     fit-margin-left="0"
     fit-margin-right="0"
     fit-margin-bottom="0"
     inkscape:window-width="1920"
     inkscape:window-height="993"
     inkscape:window-x="0"
     inkscape:window-y="27"
     inkscape:window-maximized="1" />
  <metadata
     id="metadata7">
    <rdf:RDF>
      <cc:Work
         rdf:about="">
        <dc:format>image/svg+xml</dc:format>
        <dc:type
           rdf:resource="http://purl.org/dc/dcmitype/StillImage" />
        <dc:title></dc:title>
      </cc:Work>
    </rdf:RDF>
  </metadata>
  <g
     inkscape:label="Layer 1"
     inkscape:groupmode="layer"
     id="layer1"
     transform="translate(80.809261,418.66864)">
    <path
       style="fill:#ffa500;fill-opacity:1;fill-rule:nonzero;stroke:none"
       d="m 289.25324,-388.85038 c -12.09919,0.46232 -21.78125,9.76398 -21.78125,22.03101 0,12.66274 -0.0312,113.87524 -0.0312,113.87524 0,11.0999 -9.91648,20.4375 -22.40625,20.4375 l -39.03125,0 c -12.85151,0 -23.125,-9.3376 -23.125,-20.4375 l 0,-41.875 c 0,-34.72762 -30.14352,-63.03125 -67.59375,-63.03125 -38.192773,0 -67.562503,27.94189 -67.562503,63.03125 l 0,41.875 c 0,11.0999 -10.27349,20.4375 -23.124998,20.4375 l -37.125002,0 c -12.85151,0 -22.375,-9.3376 -22.375,-20.4375 l 0,-113.87524 c 0,-12.16609 -10.666539,-21.84351 -23.1563,-21.84351 -12.470718,0 -22.749998,9.67742 -22.749998,21.84351 l 0,114.93774 c 0,34.72763 30.46928,63.03125 68.281248,63.03125 l 37.500002,0 c 37.450228,0 68.281248,-28.30362 68.281248,-63.03125 l 0,-42.9375 c 0,-11.46164 9.541503,-20.4375 22.031253,-20.4375 12.47072,0 22.03125,8.97586 22.03125,20.4375 l 0,42.9375 c 0,34.72763 30.4815,63.03125 68.3125,63.03125 l 39.40625,0 c 37.45024,0 68.3125,-28.30362 68.3125,-63.03125 l 0,-114.93774 c 0,-11.75842 -10.29352,-21.9368 -22.9375,-22.03101 -0.39512,-0.003 -0.76595,-0.0149 -1.15625,0 z m 406.8125,0 c -52.75224,0 -84.40625,53.66977 -84.40625,100 l 0,77.96875 c 0,11.92659 10.07341,22.03125 22,22.03125 11.92659,0 22.03125,-10.10466 22.03125,-22.03125 l 0,-77.96875 c 0,-22.01832 9.17321,-55.96875 51.375,-55.96875 l 165.59375,0 c 42.20179,0 51.37505,33.95043 51.37505,55.96875 l 0,77.96875 c 0,11.92659 10.1046,22.03125 22.03135,22.03125 11.9265,0 22,-10.10466 22,-22.03125 l 0,-77.96875 c 0,-45.4128 -29.8126,-97.2477 -79.81265,-100 z m -336.6875,0.1875 c -12.58559,0 -22.09375,9.48807 -22.09375,21.84375 0,12.35568 10.08757,21.84375 22.09375,21.84375 l 165.53125,0 c 13.21324,0 22.40629,5.85087 22.40625,17.3125 0,9.65292 -8.81219,16.875 -22.40625,16.875 l -119.71875,0 c -41.50559,0 -67.90625,25.70408 -67.90625,60.8125 0,35.08936 26.40065,61.125 67.90625,61.125 l 164.90625,0 c 12.48974,0 22.74998,-10.00238 22.75,-22.1875 0,-12.16609 -10.26028,-21.46875 -22.75,-21.46875 l -164.90625,0 c -12.10898,0 -22.40624,-6.11885 -22.40625,-17.21875 0,-10.73815 9.19299,-17.375 22.40625,-17.375 l 119.71875,0 c 40.82017,0 67.93748,-27.98631 67.9375,-60.5625 0,-35.45112 -26.81267,-61 -67.9375,-61 z"
       id="path2451-0"
       inkscape:connector-curvature="0"
       sodipodi:nodetypes="sscsssssssssssssssssssssssssssssssssssssssscssssssssssssssssssss" />
    <g
       id="g3038"
       transform="translate(62.857144,-365.71429)">
      <g
         transform="translate(-28.571429,714.28572)"
         id="g3033">
        <path
           style="fill:#ed9121;fill-opacity:1;fill-rule:nonzero;stroke:none"
           d="m 370.0625,0 c -12.09919,0.46232 -21.78125,9.76422 -21.78125,22.03125 0,12.66274 -0.0312,113.875 -0.0312,113.875 0,11.0999 -9.91648,20.4375 -22.40625,20.4375 l -39.03125,0 c -12.85151,0 -23.125,-9.3376 -23.125,-20.4375 l 0,-41.875 C 263.6875,59.30363 233.54398,31 196.09375,31 c -38.19277,0 -67.5625,27.94189 -67.5625,63.03125 l 0,41.875 c 0,11.0999 -10.27349,20.4375 -23.125,20.4375 l -37.125,0 c -12.85151,0 -22.375,-9.3376 -22.375,-20.4375 l 0,-113.875 C 45.90625,9.86516 35.239761,0.1875 22.75,0.1875 10.279283,0.1875 0,9.86516 0,22.03125 l 0,114.9375 C 0,171.69638 30.469282,200 68.28125,200 l 37.5,0 c 37.45023,0 68.28125,-28.30362 68.28125,-63.03125 l 0,-42.9375 c 0,-11.46164 9.5415,-20.4375 22.03125,-20.4375 12.47072,0 22.03125,8.97586 22.03125,20.4375 l 0,42.9375 C 218.125,171.69638 248.6065,200 286.4375,200 l 39.40625,0 c 37.45024,0 68.3125,-28.30362 68.3125,-63.03125 l 0,-114.9375 C 394.15625,10.27283 383.86273,0.09421 371.21875,0 370.82363,-0.003 370.4528,-0.0149 370.0625,0 z"
           transform="translate(-17.001248,213.17874)"
           id="path2451"
           inkscape:connector-curvature="0" />
        <path
           style="fill:#edb321;fill-opacity:1;fill-rule:nonzero;stroke:none"
           d="m 286.61482,369.37517 c -12.58559,0 -22.09375,9.48807 -22.09375,21.84375 0,12.35568 10.08757,21.84375 22.09375,21.84375 l 165.53125,0 c 13.21324,0 22.40629,5.85087 22.40625,17.3125 0,9.65292 -8.81219,16.875 -22.40625,16.875 l -119.71875,0 c -41.50559,0 -67.90625,25.70408 -67.90625,60.8125 0,35.08936 26.40065,61.125 67.90625,61.125 l 164.90625,0 c 12.48974,0 22.74998,-10.00238 22.75,-22.1875 0,-12.16609 -10.26028,-21.46875 -22.75,-21.46875 l -164.90625,0 c -12.10898,0 -22.40624,-6.11885 -22.40625,-17.21875 0,-10.73815 9.19299,-17.375 22.40625,-17.375 l 119.71875,0 c 40.82017,0 67.93748,-27.98631 67.9375,-60.5625 0,-35.45112 -26.81267,-61 -67.9375,-61 l -165.53125,0 z"
           id="path2451-4"
           inkscape:connector-curvature="0" />
        <path
           style="fill:#edd521;fill-opacity:1;fill-rule:nonzero;stroke:none"
           d="m 521.87375,526.33945 c -52.75224,0 -84.40625,53.6698 -84.40625,100 l 0,77.96875 c 0,11.9266 10.07341,22.03125 22,22.03125 11.92659,0 22.03125,-10.10465 22.03125,-22.03125 l 0,-77.96875 c 0,-22.0183 9.17321,-55.96875 51.375,-55.96875 l 165.59375,0 c 42.20179,0 51.37495,33.95045 51.37505,55.96875 l 0,77.96875 c 0,11.9266 10.1045,22.03125 22.0312,22.03125 11.9266,0 22,-10.10465 22,-22.03125 l 0,-77.96875 c 0,-45.4128 -29.8124,-97.2477 -79.8125,-100 l -192.1875,0 z"
           id="path2451-40"
           inkscape:connector-curvature="0" />
      </g>
      <path
         inkscape:export-ydpi="360"
         inkscape:export-xdpi="360"
         inkscape:export-filename="/home/adame/Desktop/W2N/logo3.png"
         inkscape:connector-curvature="0"
         id="path2451-1"
         d="m 304.52107,1515.3366 c -12.09919,0.4624 -21.78125,9.7642 -21.78125,22.0312 0,12.6627 -0.0312,113.875 -0.0312,113.875 0,11.0999 -9.91648,20.4375 -22.40625,20.4375 l -2.21875,0 -36.8125,0 c -12.85151,0 -23.125,-9.3376 -23.125,-20.4375 l 0,-41.875 c -5e-5,-34.7276 -30.14352,-63.0312 -67.59375,-63.0312 -38.192769,0 -67.562499,27.9418 -67.562499,63.0312 l 0,41.875 c 0,11.0999 -10.27349,20.4375 -23.125,20.4375 l -37.1250001,0 c -12.8515099,0 -22.3749999,-9.3376 -22.3749999,-20.4375 l 0,-113.875 c 0,-12.1661 -10.66649,-21.8437 -23.15625,-21.8437 -12.47072,0 -22.75,9.6776 -22.75,21.8437 l 0,114.9375 c 0,34.7276 30.46928,63.0313 68.2812499,63.0313 l 37.5000001,0 c 37.45023,0 68.281249,-28.3037 68.281249,-63.0313 l 0,-42.9375 c 0,-11.4616 9.5415,-20.4375 22.03125,-20.4375 12.47072,0 22.03125,8.9759 22.03125,20.4375 l 0,42.9375 c 0,34.7276 30.4815,63.0313 68.3125,63.0313 l 36.0625,0 c 0.3712,0.018 0.74981,0.031 1.125,0.031 l 165.53125,0 c 13.21324,0 22.40629,5.8508 22.40625,17.3125 0,9.6529 -8.81219,16.875 -22.40625,16.875 l -119.71875,0 c -41.50559,0 -67.90625,25.7041 -67.90625,60.8125 0,35.0893 26.40065,61.125 67.90625,61.125 l 96.21875,0 c -9.87008,17.2317 -15.1875,37.3927 -15.1875,56.3438 l 0,77.9687 c 0,11.9266 10.07341,22.0312 22,22.0313 11.92659,0 22.03125,-10.1047 22.03125,-22.0313 l 0,-77.9687 c 0,-22.0183 9.17321,-55.9688 51.375,-55.9688 l 165.59375,0 c 42.20179,0 51.3749,33.9504 51.375,55.9688 l 0,77.9687 c 0,11.9266 10.10455,22.0312 22.03125,22.0313 11.9266,0 22,-10.1047 22,-22.0313 l 0,-77.9687 c 0,-45.4129 -29.8124,-97.2477 -79.8125,-100 l -192.1875,0 c -0.17826,0 -0.35205,0 -0.53125,0 l -164.90625,0 c -12.10898,0 -22.40624,-6.1189 -22.40625,-17.2188 0,-10.7382 9.19299,-17.375 22.40625,-17.375 l 119.71875,0 c 40.82017,0 67.93748,-27.9863 67.9375,-60.5625 0,-35.4511 -26.81267,-61 -67.9375,-61 l -98.34375,0 c 2.15839,-6.11 3.34375,-12.6173 3.34375,-19.375 l 0,-114.9375 c 0,-11.7584 -10.29352,-21.9369 -22.9375,-22.0312 -0.39512,0 -0.76595,-0.015 -1.15625,0 z"
         style="fill:url(#linearGradient3047);fill-opacity:1;fill-rule:nonzero;stroke:none" />
      <path
         inkscape:export-ydpi="360"
         inkscape:export-xdpi="360"
         inkscape:export-filename="/home/adame/Desktop/W2N/logo4.png"
         inkscape:connector-curvature="0"
         id="path2451-1-4"
         d="m 337.24426,2064.4472 c -12.09919,0.4624 -21.78125,9.7642 -21.78125,22.0312 0,12.6627 -0.0312,113.875 -0.0312,113.875 0,11.0999 -9.91648,20.4375 -22.40625,20.4375 l -2.21875,0 -36.8125,0 c -12.85151,0 -23.125,-9.3376 -23.125,-20.4375 l 0,-41.875 c -5e-5,-34.7276 -30.14352,-63.0312 -67.59375,-63.0312 -38.19277,0 -67.562504,27.9418 -67.562504,63.0312 l 0,41.875 c 0,11.0999 -10.27349,20.4375 -23.125,20.4375 l -37.125,0 c -12.85151,0 -22.375,-9.3376 -22.375,-20.4375 l 0,-113.875 c 0,-12.1661 -10.6664897,-21.8437 -23.15625,-21.8437 -12.47072,0 -22.75,9.6776 -22.75,21.8437 l 0,114.9375 c 0,34.7276 30.4692803,63.0313 68.28125,63.0313 l 37.5,0 c 37.450234,0 68.281254,-28.3037 68.281254,-63.0313 l 0,-42.9375 c 0,-11.4616 9.5415,-20.4375 22.03125,-20.4375 12.47072,0 22.03125,8.9759 22.03125,20.4375 l 0,42.9375 c 0,34.7276 30.4815,63.0313 68.3125,63.0313 l 36.0625,0 c 0.3712,0.018 0.74981,0.031 1.125,0.031 l 165.53125,0 c 13.21324,0 22.40629,5.8508 22.40625,17.3125 0,9.6529 -8.81219,16.875 -22.40625,16.875 l -119.71875,0 c -41.50559,0 -67.90625,25.7041 -67.90625,60.8125 0,35.0893 26.40065,61.125 67.90625,61.125 l 96.21875,0 c -9.87008,17.2317 -15.1875,37.3927 -15.1875,56.3438 l 0,77.9687 c 0,11.9266 10.07341,22.0312 22,22.0313 11.92659,0 22.03125,-10.1047 22.03125,-22.0313 l 0,-77.9687 c 0,-22.0183 9.17321,-55.9688 51.375,-55.9688 l 165.59375,0 c 42.20179,0 51.3749,33.9504 51.375,55.9688 l 0,77.9687 c 0,11.9266 10.10455,22.0312 22.03125,22.0313 11.9266,0 22,-10.1047 22,-22.0313 l 0,-77.9687 c 0,-45.4129 -29.8124,-97.2477 -79.8125,-100 l -192.1875,0 c -0.17826,0 -0.35205,0 -0.53125,0 l -164.90625,0 c -12.10898,0 -22.40624,-6.1189 -22.40625,-17.2188 0,-10.7382 9.19299,-17.375 22.40625,-17.375 l 119.71875,0 c 40.82017,0 67.93748,-27.9863 67.9375,-60.5625 0,-35.4511 -26.81267,-61 -67.9375,-61 l -98.34375,0 c 2.15839,-6.11 3.34375,-12.6173 3.34375,-19.375 l 0,-114.9375 c 0,-11.7584 -10.29352,-21.9369 -22.9375,-22.0312 -0.39512,0 -0.76595,-0.015 -1.15625,0 z"
         style="fill:url(#linearGradient3049);fill-opacity:1;fill-rule:nonzero;stroke:none" />
      <path
         inkscape:export-ydpi="360"
         inkscape:export-xdpi="360"
         inkscape:export-filename="/home/adame/Desktop/W2N/logo5.png"
         inkscape:connector-curvature="0"
         id="path2451-1-4-9"
         d="m 335.66067,2645.1678 c -12.09919,0.4624 -21.78125,9.7642 -21.78125,22.0312 0,12.6627 -0.0312,113.875 -0.0312,113.875 0,11.0999 -9.91648,20.4375 -22.40625,20.4375 l -2.21875,0 -36.8125,0 c -12.85151,0 -23.125,-9.3376 -23.125,-20.4375 l 0,-41.875 c -5e-5,-34.7276 -30.14352,-63.0312 -67.59375,-63.0312 -38.19277,0 -67.562501,27.9418 -67.562501,63.0312 l 0,41.875 c 0,11.0999 -10.27349,20.4375 -23.125,20.4375 l -37.125,0 c -12.85151,0 -22.375,-9.3376 -22.375,-20.4375 l 0,-113.875 c 0,-12.1661 -10.66649012,-21.8437 -23.15625,-21.8437 -12.47072,0 -22.75,9.6776 -22.75,21.8437 l 0,114.9375 c 0,34.7276 30.4692799,63.0313 68.28125,63.0313 l 37.5,0 c 37.450231,0 68.281251,-28.3037 68.281251,-63.0313 l 0,-42.9375 c 0,-11.4616 9.5415,-20.4375 22.03125,-20.4375 12.47072,0 22.03125,8.9759 22.03125,20.4375 l 0,42.9375 c 0,34.7276 30.4815,63.0313 68.3125,63.0313 l 36.0625,0 c 0.3712,0.018 0.74981,0.031 1.125,0.031 l 165.53125,0 c 13.21324,0 22.40629,5.8508 22.40625,17.3125 0,9.6529 -8.81219,16.875 -22.40625,16.875 l -119.71875,0 c -41.50559,0 -67.90625,25.7041 -67.90625,60.8125 0,35.0893 26.40065,61.125 67.90625,61.125 l 96.21875,0 c -9.87008,17.2317 -15.1875,37.3927 -15.1875,56.3438 l 0,77.9687 c 0,11.9266 10.07341,22.0312 22,22.0313 11.92659,0 22.03125,-10.1047 22.03125,-22.0313 l 0,-77.9687 c 0,-22.0183 9.17321,-55.9688 51.375,-55.9688 l 165.59375,0 c 42.20179,0 51.3749,33.9504 51.375,55.9688 l 0,77.9687 c 0,11.9266 10.10455,22.0312 22.03125,22.0313 11.9266,0 22,-10.1047 22,-22.0313 l 0,-77.9687 c 0,-45.4129 -29.8124,-97.2477 -79.8125,-100 l -192.1875,0 c -0.17826,0 -0.35205,0 -0.53125,0 l -164.90625,0 c -12.10898,0 -22.40624,-6.1189 -22.40625,-17.2188 0,-10.7382 9.19299,-17.375 22.40625,-17.375 l 119.71875,0 c 40.82017,0 67.93748,-27.9863 67.9375,-60.5625 0,-35.4511 -26.81267,-61 -67.9375,-61 l -98.34375,0 c 2.15839,-6.11 3.34375,-12.6173 3.34375,-19.375 l 0,-114.9375 c 0,-11.7584 -10.29352,-21.9369 -22.9375,-22.0312 -0.39512,0 -0.76595,-0.015 -1.15625,0 z"
         style="fill:url(#linearGradient3051);fill-opacity:1;fill-rule:nonzero;stroke:none" />
    </g>
    <path
       style="fill:url(#linearGradient3884);fill-opacity:1;fill-rule:nonzero;stroke:none"
       d="m 1748.7552,-418.6613 c -12.0992,0.46232 -21.7812,9.76398 -21.7812,22.03101 0,12.66274 -0.031,113.87524 -0.031,113.87524 0,11.0999 -9.9165,20.4375 -22.4063,20.4375 l -39.0312,0 c -12.8515,0 -23.125,-9.3376 -23.125,-20.4375 l 0,-41.875 c 0,-34.72762 -30.1435,-63.03125 -67.5938,-63.03125 -38.1927,0 -67.5625,27.94189 -67.5625,63.03125 l 0,41.875 c 0,11.0999 -10.2735,20.4375 -23.125,20.4375 l -37.125,0 c -12.8515,0 -22.375,-9.3376 -22.375,-20.4375 l 0,-113.87524 c 0,-12.16609 -10.6665,-21.84351 -23.1563,-21.84351 -12.4707,0 -22.75,9.67742 -22.75,21.84351 l 0,114.93774 c 0,34.72763 30.4693,63.03125 68.2813,63.03125 l 37.5,0 c 37.4502,0 68.2812,-28.30362 68.2812,-63.03125 l 0,-42.9375 c 0,-11.46164 9.5415,-20.4375 22.0313,-20.4375 12.4707,0 22.0312,8.97586 22.0312,20.4375 l 0,42.9375 c 0,34.72763 30.4815,63.03125 68.3125,63.03125 l 39.4063,0 c 37.4502,0 68.3125,-28.30362 68.3125,-63.03125 l 0,-114.93774 c 0,-11.75842 -10.2935,-21.9368 -22.9375,-22.03101 -0.3951,-0.003 -0.766,-0.0149 -1.1563,0 z m 406.8125,0 c -52.7522,0 -84.4062,53.66977 -84.4062,100 l 0,77.96875 c 0,11.92659 10.0734,22.03125 22,22.03125 11.9266,0 22.0312,-10.10466 22.0312,-22.03125 l 0,-77.96875 c 0,-22.01832 9.1732,-55.96875 51.375,-55.96875 l 165.5938,0 c 42.2018,0 51.375,33.95043 51.375,55.96875 l 0,77.96875 c 0,11.92659 10.1046,22.03125 22.0314,22.03125 11.9265,0 22,-10.10466 22,-22.03125 l 0,-77.96875 c 0,-45.4128 -29.8126,-97.2477 -79.8127,-100 z m -336.6875,0.1875 c -12.5856,0 -22.0937,9.48807 -22.0937,21.84375 0,12.35568 10.0875,21.84375 22.0937,21.84375 l 165.5313,0 c 13.2132,0 22.4063,5.85087 22.4062,17.3125 0,9.65292 -8.8122,16.875 -22.4062,16.875 l -119.7188,0 c -41.5056,0 -67.9062,25.70408 -67.9062,60.8125 0,35.08936 26.4006,61.125 67.9062,61.125 l 164.9063,0 c 12.4897,0 22.75,-10.00238 22.75,-22.1875 0,-12.16609 -10.2603,-21.46875 -22.75,-21.46875 l -164.9063,0 c -12.109,0 -22.4062,-6.11885 -22.4062,-17.21875 0,-10.73815 9.193,-17.375 22.4062,-17.375 l 119.7188,0 c 40.8201,0 67.9375,-27.98631 67.9375,-60.5625 0,-35.45112 -26.8127,-61 -67.9375,-61 z"
       id="path2451-0-4"
       inkscape:connector-curvature="0"
       sodipodi:nodetypes="sscsssssssssssssssssssssssssssssssssssssssscssssssssssssssssssss"
       inkscape:export-filename="/home/adame/Desktop/W2N/logo6.png"
       inkscape:export-xdpi="360"
       inkscape:export-ydpi="360" />
    <path
       style="fill:url(#linearGradient3907);fill-opacity:1;fill-rule:nonzero;stroke:none"
       d="m 3416.2441,-410.90014 c -12.0992,0.46232 -21.7812,9.76398 -21.7812,22.03101 0,12.66274 -0.031,113.87524 -0.031,113.87524 0,11.09994 -9.9165,20.43754 -22.4063,20.43754 l -39.0312,0 c -12.8515,0 -23.125,-9.3376 -23.125,-20.43754 l 0,-41.875 c 0,-34.72762 -30.1435,-63.03125 -67.5938,-63.03125 -38.1927,0 -67.5625,27.94189 -67.5625,63.03125 l 0,41.875 c 0,11.09994 -10.2735,20.43754 -23.125,20.43754 l -37.125,0 c -12.8515,0 -22.375,-9.3376 -22.375,-20.43754 l 0,-113.87524 c 0,-12.16609 -10.6665,-21.84351 -23.1563,-21.84351 -12.4707,0 -22.75,9.67742 -22.75,21.84351 l 0,114.93774 c 0,34.72764 30.4693,63.03124 68.2813,63.03124 l 37.5,0 c 37.4502,0 68.2812,-28.3036 68.2812,-63.03124 l 0,-42.9375 c 0,-11.46164 9.5415,-20.4375 22.0313,-20.4375 12.4707,0 22.0312,8.97586 22.0312,20.4375 l 0,42.9375 c 0,34.72764 30.4815,63.03124 68.3125,63.03124 l 39.4063,0 c 37.4502,0 68.3125,-28.3036 68.3125,-63.03124 l 0,-114.93774 c 0,-11.75842 -10.2935,-21.9368 -22.9375,-22.03101 -0.3951,-0.003 -0.766,-0.0149 -1.1563,0 z m 406.8125,0 c -52.7522,0 -84.4062,53.66977 -84.4062,100 l 0,77.96879 c 0,11.9266 10.0734,22.0312 22,22.0312 11.9266,0 22.0312,-10.1046 22.0312,-22.0312 l 0,-77.96879 c 0,-22.01832 9.1732,-55.96875 51.375,-55.96875 l 165.5938,0 c 42.2018,0 51.375,33.95043 51.375,55.96875 l 0,77.96879 c 0,11.9266 10.1046,22.0312 22.0314,22.0312 11.9265,0 22,-10.1046 22,-22.0312 l 0,-77.96879 c 0,-45.4128 -29.8126,-97.2477 -79.8127,-100 z m -336.6875,0.1875 c -12.5856,0 -22.0937,9.48807 -22.0937,21.84375 0,12.35568 10.0875,21.84375 22.0937,21.84375 l 165.5313,0 c 13.2132,0 22.4063,5.85087 22.4062,17.3125 0,9.65292 -8.8122,16.875 -22.4062,16.875 l -119.7188,0 c -41.5056,0 -67.9062,25.70408 -67.9062,60.8125 0,35.08939 26.4006,61.12499 67.9062,61.12499 l 164.9063,0 c 12.4897,0 22.75,-10.0024 22.75,-22.1875 0,-12.1661 -10.2603,-21.4687 -22.75,-21.4687 l -164.9063,0 c -12.109,0 -22.4062,-6.1189 -22.4062,-17.21879 0,-10.73815 9.193,-17.375 22.4062,-17.375 l 119.7188,0 c 40.8201,0 67.9375,-27.98631 67.9375,-60.5625 0,-35.45112 -26.8127,-61 -67.9375,-61 z"
       id="path2451-0-4-5"
       inkscape:connector-curvature="0"
       sodipodi:nodetypes="sscsssssssssssssssssssssssssssssssssssssssscssssssssssssssssssss"
       inkscape:export-filename="/home/adame/Desktop/W2N/logo6.png"
       inkscape:export-xdpi="360"
       inkscape:export-ydpi="360" />
    <text
       xml:space="preserve"
       style="font-size:40px;font-style:normal;font-variant:normal;font-weight:normal;font-stretch:normal;line-height:125%;letter-spacing:0px;word-spacing:0px;fill:url(#linearGradient3808);fill-opacity:1;stroke:none;font-family:Georgia;-inkscape-font-specification:Georgia"
       x="2825.9563"
       y="711.82251"
       id="text3932"
       sodipodi:linespacing="125%"
       inkscape:export-filename="/home/adame/Desktop/W2N/logo7.png"
       inkscape:export-xdpi="360"
       inkscape:export-ydpi="360"><tspan
         sodipodi:role="line"
         id="tspan3934"
         x="2825.9563"
         y="711.82251"
         style="font-size:500px;font-style:normal;font-variant:normal;font-weight:normal;font-stretch:normal;fill:url(#linearGradient3808);fill-opacity:1;font-family:Zebulon;-inkscape-font-specification:Zebulon">W2N</tspan></text>
    <text
       xml:space="preserve"
       style="font-size:40px;font-style:normal;font-variant:normal;font-weight:normal;font-stretch:normal;line-height:125%;letter-spacing:0px;word-spacing:0px;fill:url(#linearGradient3840);fill-opacity:1;stroke:none;font-family:Georgia;-inkscape-font-specification:Georgia"
       x="4712.0938"
       y="722.85181"
       id="text3932-1"
       sodipodi:linespacing="125%"
       inkscape:export-filename="/home/adame/Desktop/W2N/logo8.png"
       inkscape:export-xdpi="360"
       inkscape:export-ydpi="360"><tspan
         sodipodi:role="line"
         id="tspan3934-5"
         x="4712.0938"
         y="722.85181"
         style="font-size:500px;font-style:normal;font-variant:normal;font-weight:normal;font-stretch:normal;fill:url(#linearGradient3840);fill-opacity:1;font-family:Zebulon;-inkscape-font-specification:Zebulon">WHERE2NIGHT</tspan></text>
  </g>
</svg>
